<svg width="920" height="620" viewBox="0 0 920 620" fill="none" xmlns="http://www.w3.org/2000/svg">
  <rect width="920" height="620" rx="42" fill="#E8DECD"/>
  <rect x="118" y="104" width="456" height="388" rx="74" fill="#30353A"/>
  <rect x="154" y="148" width="382" height="280" rx="54" fill="#3C4248"/>
  <rect x="594" y="150" width="178" height="266" rx="42" fill="#D0B89D"/>
  <path d="M262 184C262 120.487 313.487 69 377 69C440.513 69 492 120.487 492 184V208H446V184C446 145.34 415.66 115 377 115C338.34 115 308 145.34 308 184V208H262V184Z" fill="#202428"/>
  <rect x="638" y="194" width="92" height="28" rx="14" fill="#B58E62"/>
  <rect x="638" y="240" width="84" height="18" rx="9" fill="#B58E62" fill-opacity="0.65"/>
  <rect x="638" y="274" width="104" height="18" rx="9" fill="#B58E62" fill-opacity="0.5"/>
  <text x="118" y="555" fill="#221E1A" font-family="Arial, sans-serif" font-size="42" font-weight="700">Aero Carry Pack</text>
</svg>